<?xml version="1.0" encoding="UTF-8" standalone="no"?>
<svg
   xmlns:dc="http://purl.org/dc/elements/1.1/"
   xmlns:cc="http://creativecommons.org/ns#"
   xmlns:rdf="http://www.w3.org/1999/02/22-rdf-syntax-ns#"
   xmlns:svg="http://www.w3.org/2000/svg"
   xmlns="http://www.w3.org/2000/svg"
   xmlns:sodipodi="http://sodipodi.sourceforge.net/DTD/sodipodi-0.dtd"
   xmlns:inkscape="http://www.inkscape.org/namespaces/inkscape"
   viewBox="0 0 512 512"
   style="height: 100%; width: 100%;"
   version="1.1"
   id="svg888"
   sodipodi:docname="recipes.svg"
   inkscape:version="0.92.4 (5da689c313, 2019-01-14)">
  <metadata
     id="metadata894">
    <rdf:RDF>
      <cc:Work
         rdf:about="">
        <dc:format>image/svg+xml</dc:format>
        <dc:type
           rdf:resource="http://purl.org/dc/dcmitype/StillImage" />
      </cc:Work>
    </rdf:RDF>
  </metadata>
  <defs
     id="defs892" />
  <sodipodi:namedview
     pagecolor="#ffffff"
     bordercolor="#666666"
     borderopacity="1"
     objecttolerance="10"
     gridtolerance="10"
     guidetolerance="10"
     inkscape:pageopacity="0"
     inkscape:pageshadow="2"
     inkscape:window-width="2560"
     inkscape:window-height="1016"
     id="namedview890"
     showgrid="false"
     inkscape:zoom="0.4609375"
     inkscape:cx="256"
     inkscape:cy="256"
     inkscape:window-x="0"
     inkscape:window-y="27"
     inkscape:window-maximized="1"
     inkscape:current-layer="svg888" />
  <path
     d="M0 0h512v512H0z"
     fill="#000"
     fill-opacity="1"
     id="path882"
     style="fill:#000000;fill-opacity:0" />
  <g
     class=""
     transform="translate(0,0)"
     style="touch-action: none;"
     id="g886">
    <path
       d="M413.375 69.906L336.937 191.47l-8.25-32.69-30.218 88.97 62.655-29.375.22 29.438 127.03-50.938-70.813-1.97 47.782-68.686-73.47 39.25 21.5-95.564zM210.22 102.094l-32 14.406 16.874 55.656-177.813 80.03 12.564 27.876L207.656 200l30.406 49.47 49.313-22.19-21.344-70.343-55.81-54.843zM197.593 266.78v20.345h-88.906c15.994 38.807 51.225 65.43 88.906 74.28v32.97h58.562c-12.118 30.528-33.505 55.684-58.47 77.594H172.22v18.686H456.56V471.97h-27.406c-28.734-21.895-50.055-47.018-61.625-77.595h63.658v-29.188c19.748-6.995 39.5-19.51 59.25-36.687-19.812-17.523-39.23-27.25-59.25-31.938v-29.78H197.594z"
       fill="#fff"
       fill-opacity="1"
       id="path884" />
  </g>
</svg>
