<?xml version="1.0" encoding="UTF-8" standalone="no"?>
<svg
   xmlns:dc="http://purl.org/dc/elements/1.1/"
   xmlns:cc="http://creativecommons.org/ns#"
   xmlns:rdf="http://www.w3.org/1999/02/22-rdf-syntax-ns#"
   xmlns:svg="http://www.w3.org/2000/svg"
   xmlns="http://www.w3.org/2000/svg"
   xmlns:sodipodi="http://sodipodi.sourceforge.net/DTD/sodipodi-0.dtd"
   xmlns:inkscape="http://www.inkscape.org/namespaces/inkscape"
   viewBox="0 0 512 512"
   style="height: 100%; width: 100%;"
   version="1.1"
   id="svg5744"
   sodipodi:docname="updates.svg"
   inkscape:version="0.92.4 (5da689c313, 2019-01-14)">
  <metadata
     id="metadata5750">
    <rdf:RDF>
      <cc:Work
         rdf:about="">
        <dc:format>image/svg+xml</dc:format>
        <dc:type
           rdf:resource="http://purl.org/dc/dcmitype/StillImage" />
      </cc:Work>
    </rdf:RDF>
  </metadata>
  <defs
     id="defs5748" />
  <sodipodi:namedview
     pagecolor="#ffffff"
     bordercolor="#666666"
     borderopacity="1"
     objecttolerance="10"
     gridtolerance="10"
     guidetolerance="10"
     inkscape:pageopacity="0"
     inkscape:pageshadow="2"
     inkscape:window-width="2560"
     inkscape:window-height="1016"
     id="namedview5746"
     showgrid="false"
     inkscape:zoom="0.4609375"
     inkscape:cx="-129.08475"
     inkscape:cy="256"
     inkscape:window-x="0"
     inkscape:window-y="27"
     inkscape:window-maximized="1"
     inkscape:current-layer="svg5744" />
  <path
     d="M0 0h512v512H0z"
     fill="#000"
     fill-opacity="1"
     id="path5738"
     style="fill:#000000;fill-opacity:0" />
  <g
     class=""
     transform="translate(0,0)"
     style="touch-action: none;"
     id="g5742">
    <path
       d="M119 31v66h18V31h-18zm256 0v66h18V31h-18zM73 89v30h366V89h-28v26h-54V89H155v26h-54V89H73zm0 48v302h366V137H73zm110 14h18v32h46v-32h18v32h46v-32h18v32h46v-32h18v32h32v18h-32v46h32v18h-32v46h32v18h-32v46h32v18H265v32h-18v-32h-46v32h-18v-32h-46v32h-18v-32H87v-18h32v-46H87v-18h32v-46H87v-18h32v-46H87v-18h96v-32zm-46 50v46h46v-46h-46zm64 0v46h46v-46h-46zm64 0v46h46v-46h-46zm64 0v46h46v-46h-46zm-192 64v46h46v-46h-46zm64 0v46h46v-46h-46zm64 0v13.27c2.545-5.936 7.334-10.725 13.27-13.27H265zm32.73 0c5.936 2.545 10.725 7.334 13.27 13.27V265h-13.27zm31.27 0v46h46v-46h-46zm-41 16c-3.973 0-7 3.027-7 7s3.027 7 7 7 7-3.027 7-7-3.027-7-7-7zm-23 16.73V311h13.27c-5.936-2.545-10.725-7.334-13.27-13.27zm46 0c-2.545 5.936-7.334 10.725-13.27 13.27H311v-13.27zM137 329v46h46v-46h-46zm64 0v46h46v-46h-46zm64 0v46h46v-46h-46zm64 0v46h46v-46h-46z"
       fill="#fff"
       fill-opacity="1"
       id="path5740" />
  </g>
</svg>
